<svg width="42" height="42" viewBox="0 0 42 42" fill="none" xmlns="http://www.w3.org/2000/svg">
<circle cx="20.8193" cy="20.8193" r="20.3193" fill="#DDDFE3" stroke="black"/>
<path d="M27.6696 12.4916H15.0099C13.5806 12.4916 12.4916 13.5806 12.4916 15.0099V27.6696C12.4916 29.099 13.5806 30.188 15.0099 30.188H27.6696C29.0989 30.188 30.1879 29.099 30.1879 27.6696V15.0099C30.1879 13.5806 29.0989 12.4916 27.6696 12.4916ZM21.3398 26.6487C24.2665 26.6487 26.6487 24.3345 26.6487 21.544C26.6487 21.0675 26.5806 20.523 26.4445 20.1146H27.9419V27.3293C27.9419 27.6696 27.6696 28.0099 27.2612 28.0099H15.4183C15.078 28.0099 14.7376 27.7377 14.7376 27.3293V20.0466H16.3031C16.167 20.523 16.0989 20.9995 16.0989 21.4759C16.0308 24.3345 18.413 26.6487 21.3398 26.6487ZM21.3398 24.6068C19.434 24.6068 17.9366 23.1094 17.9366 21.2717C17.9366 19.434 19.434 17.9366 21.3398 17.9366C23.2455 17.9366 24.7429 19.434 24.7429 21.2717C24.7429 23.1775 23.2455 24.6068 21.3398 24.6068ZM27.8738 17.324C27.8738 17.7324 27.5335 18.0727 27.1251 18.0727H25.2193C24.811 18.0727 24.4707 17.7324 24.4707 17.324V15.4863C24.4707 15.078 24.811 14.7377 25.2193 14.7377H27.1251C27.5335 14.7377 27.8738 15.078 27.8738 15.4863V17.324Z" fill="black"/>
</svg>
