<svg width="247" height="246" viewBox="0 0 247 246" fill="none" xmlns="http://www.w3.org/2000/svg">
<path fill-rule="evenodd" clip-rule="evenodd" d="M186.152 17.6029C181.303 14.7683 176.281 12.2776 171.127 10.1391L237.268 75.7822C235.107 70.6783 232.573 65.6665 229.659 60.7822L186.152 17.6029ZM227.383 57.1145C227.101 56.6783 226.817 56.2432 226.529 55.8093C216.652 40.9035 204.056 28.8381 189.819 19.8335L227.383 57.1145ZM157.387 5.35939C161.226 6.44825 165.014 7.72172 168.738 9.17675L238.246 78.1614C239.729 81.8819 241.016 85.6478 242.111 89.4457L157.387 5.35939ZM155.424 4.8198C152.223 3.96821 148.99 3.24416 145.732 2.64938L244.836 101.007C244.243 97.7874 243.516 94.5806 242.656 91.3947L155.424 4.8198ZM135.348 1.20046C138.249 1.48177 141.137 1.86436 144.008 2.34705L245.139 102.716C245.623 105.569 246.002 108.431 246.28 111.296L135.348 1.20046ZM133.786 1.05884C131.153 0.836799 128.511 0.698166 125.864 0.643813L246.822 120.691C246.773 118.076 246.639 115.459 246.419 112.844L133.786 1.05884ZM117.071 0.77387C119.523 0.650815 121.975 0.600609 124.423 0.62256L246.841 122.119C246.859 124.55 246.803 126.979 246.676 129.402L117.071 0.77387ZM115.727 0.84864C113.43 0.988889 111.134 1.19318 108.841 1.4621L245.971 137.56C246.244 135.292 246.453 133.016 246.598 130.734L115.727 0.84864ZM101.085 2.62183C103.244 2.22859 105.409 1.89377 107.577 1.61687L245.814 138.813C245.532 140.968 245.193 143.115 244.797 145.252L101.085 2.62183ZM99.8909 2.84543C97.8352 3.24079 95.7852 3.68929 93.7428 4.19136L243.216 152.539C243.72 150.516 244.172 148.481 244.572 146.437L99.8909 2.84543ZM86.7672 6.12513C88.7061 5.52573 90.6542 4.97602 92.6096 4.47561L242.93 153.664C242.425 155.61 241.873 157.545 241.272 159.466L86.7672 6.12513ZM85.6889 6.46389C83.8245 7.05908 81.9689 7.70043 80.1237 8.38828L239 166.068C239.689 164.239 240.333 162.395 240.932 160.538L85.6889 6.46389ZM73.7846 10.9537C75.5439 10.1843 77.3147 9.45878 79.0956 8.77677L238.61 167.09C237.924 168.865 237.196 170.625 236.426 172.37L73.7846 10.9537ZM72.8028 11.3882C71.0999 12.1507 69.408 12.9545 67.7285 13.7999L233.569 178.391C234.415 176.726 235.222 175.044 235.99 173.346L72.8028 11.3882ZM230.445 184.148C231.364 182.558 232.246 180.949 233.09 179.324L66.79 14.2773C65.1602 15.1152 63.5424 15.9924 61.9378 16.9094L230.445 184.148ZM229.925 185.04C229.008 186.595 228.055 188.133 227.067 189.651L56.3982 20.2681C57.9319 19.2832 59.4796 18.3364 61.0401 17.4274L229.925 185.04ZM195.97 222.194C194.522 223.237 193.044 224.254 191.538 225.243L20.4907 55.4845C21.4804 53.9992 22.5048 52.5327 23.5636 51.0863L195.97 222.194ZM196.79 221.599L24.1639 50.2733C25.2216 48.8533 26.3127 47.4532 27.437 46.0741L201.025 218.355C199.643 219.462 198.231 220.543 196.79 221.599ZM31.5445 41.2939C30.3557 42.6071 29.199 43.9423 28.0748 45.2983L201.808 217.723C203.185 216.602 204.533 215.456 205.85 214.286L31.5445 41.2939ZM32.2192 40.5547C33.409 39.2619 34.6303 37.991 35.8829 36.743L210.444 209.989C209.192 211.222 207.909 212.432 206.596 213.618L32.2192 40.5547ZM40.451 32.4199C39.1348 33.603 37.8491 34.8102 36.5942 36.0401L211.154 209.285C212.404 208.034 213.622 206.76 214.809 205.465L40.451 32.4199ZM41.1988 31.7532C42.5186 30.5861 43.8686 29.4429 45.2485 28.3247L218.943 200.711C217.822 202.07 216.668 203.408 215.482 204.724L41.1988 31.7532ZM50.2771 24.4586C48.8329 25.5115 47.4181 26.5904 46.0329 27.6943L219.579 199.934C220.701 198.552 221.789 197.148 222.844 195.726L50.2771 24.4586ZM51.0985 23.865C52.5497 22.825 54.03 21.8111 55.5393 20.8246L226.507 190.504C225.52 191.992 224.498 193.462 223.443 194.911L51.0985 23.865ZM132.611 245.273C134.764 245.115 136.916 244.901 139.065 244.631L1.00214 107.607C0.72782 109.733 0.509305 111.867 0.347079 114.006L132.611 245.273ZM1.16906 106.364L140.319 244.466C142.471 244.172 144.62 243.821 146.762 243.413L2.23379 99.9728C1.8226 102.093 1.46752 104.224 1.16906 106.364ZM147.948 243.181L2.46793 98.7963C2.88251 96.7652 3.34869 94.7445 3.86605 92.7363L154.053 241.792C152.025 242.308 149.99 242.771 147.948 243.181ZM5.85552 85.854C5.24285 87.7623 4.67741 89.6845 4.15959 91.6188L155.179 241.5C157.121 240.987 159.057 240.424 160.982 239.812L5.85552 85.854ZM6.20262 84.7897C6.81396 82.9437 7.46967 81.1112 8.16938 79.2938L167.584 237.507C165.751 238.207 163.907 238.86 162.054 239.467L6.20262 84.7897ZM10.7827 73.0306C10.0022 74.7641 9.26306 76.5138 8.56561 78.2782L168.606 237.113C170.376 236.419 172.136 235.683 173.884 234.903L10.7827 73.0306ZM11.2246 72.0604C12.0024 70.3724 12.8196 68.7003 13.676 67.0455L179.904 232.021C178.234 232.876 176.553 233.69 174.86 234.463L11.2246 72.0604ZM16.8344 61.3233C15.9059 62.9037 15.0147 64.5024 14.161 66.118L180.836 231.538C182.457 230.69 184.065 229.804 185.66 228.877L16.8344 61.3233ZM17.3604 60.4366C18.1879 59.055 19.0441 57.6877 19.9287 56.3357L190.681 225.801C189.315 226.683 187.939 227.533 186.552 228.354L17.3604 60.4366ZM124.02 245.604C126.439 245.594 128.861 245.514 131.282 245.363L0.254375 115.323C0.0989019 117.716 0.013854 120.115 -9.4675e-05 122.518L124.02 245.604ZM122.597 245.601L-0.00012207 123.927C0.0147429 126.504 0.111498 129.084 0.290975 131.664L114.787 245.297C117.384 245.48 119.989 245.581 122.597 245.601ZM0.406648 133.187L113.249 245.179C110.399 244.943 107.56 244.61 104.737 244.18L1.39866 141.62C0.968491 138.815 0.638181 136.002 0.406648 133.187ZM1.6677 143.296C2.19524 146.441 2.84885 149.575 3.63006 152.691L93.5715 241.955C96.7028 242.729 99.8637 243.381 103.046 243.911L1.6677 143.296ZM4.12208 154.588L91.6597 241.466C87.9526 240.488 84.2893 239.338 80.6831 238.02L7.60678 165.494C6.26556 161.894 5.10483 158.255 4.12208 154.588ZM8.48111 167.771C10.3589 172.517 12.5543 177.19 15.0731 181.761L64.3698 230.686C68.9169 233.14 73.6026 235.3 78.3954 237.159L8.48111 167.771ZM16.9296 185.013L61.1178 228.868C45.1996 219.647 31.1272 206.732 20.3127 190.413C19.1322 188.631 18.0047 186.831 16.9296 185.013Z" fill="url(#paint0_linear_39_223)" fill-opacity="0.6"/>
<defs>
<linearGradient id="paint0_linear_39_223" x1="55.6085" y1="20.7793" x2="189.806" y2="226.374" gradientUnits="userSpaceOnUse">
<stop offset="0.227083" stop-color="#E36A3C"/>
<stop offset="0.701042" stop-color="#206AD6"/>
<stop offset="1" stop-color="#A1A8B4"/>
</linearGradient>
</defs>
</svg>
