<svg width="42" height="42" viewBox="0 0 42 42" fill="none" xmlns="http://www.w3.org/2000/svg">
<circle cx="20.8193" cy="20.8193" r="20.3193" fill="#DDDFE3" stroke="black"/>
<path d="M9.73373 21.2087L14.5202 22.9934L16.3861 28.9968C16.4672 29.4024 16.954 29.4835 17.2785 29.2401L19.9556 27.0497C20.199 26.8064 20.6046 26.8064 20.9291 27.0497L25.7156 30.5382C26.0401 30.7815 26.5268 30.6193 26.608 30.2136L30.1775 13.1772C30.2586 12.7716 29.853 12.3659 29.4474 12.5282L9.73373 20.154C9.24698 20.3163 9.24698 21.0464 9.73373 21.2087ZM16.1427 22.101L25.5533 16.3411C25.7156 16.26 25.8778 16.5034 25.7156 16.5845L18.0086 23.8047C17.7652 24.0481 17.5218 24.3726 17.5218 24.7782L17.2785 26.7252C17.2785 26.9686 16.8728 27.0497 16.7917 26.7252L15.8182 23.1557C15.5748 22.7501 15.7371 22.2633 16.1427 22.101Z" fill="black"/>
</svg>
