<svg width="44" height="44" viewBox="0 0 44 44" fill="none" xmlns="http://www.w3.org/2000/svg">
<path d="M21.8193 43C10.3211 43 1 33.6789 1 22.1807C1 10.6826 10.3211 1.36145 21.8193 1.36145C33.3174 1.36145 42.6386 10.6826 42.6386 22.1807C42.6386 33.6789 33.3174 43 21.8193 43Z" fill="#DDDFE3" stroke="black"/>
<path fill-rule="evenodd" clip-rule="evenodd" d="M35.0327 16.387C35.2384 15.7405 35.0327 15.2704 34.1218 15.2704H31.0951C30.3311 15.2704 29.9785 15.6817 29.7728 16.1225C29.7728 16.1225 28.2154 19.8838 26.0409 22.3228C25.3357 23.028 25.0124 23.2631 24.6304 23.2631C24.4247 23.2631 24.1603 23.028 24.1603 22.3815V16.3576C24.1603 15.5936 23.9252 15.241 23.2787 15.241H18.5184C18.0482 15.241 17.7544 15.5936 17.7544 15.9462C17.7544 16.6808 18.8416 16.8571 18.9591 18.9141V23.3806C18.9591 24.3503 18.7828 24.5266 18.4008 24.5266C17.3723 24.5266 14.8746 20.736 13.376 16.4164C13.0821 15.5642 12.7883 15.241 12.0243 15.241H8.96823C8.08668 15.241 7.93976 15.6524 7.93976 16.0931C7.93976 16.8865 8.96823 20.8829 12.7295 26.1722C15.2272 29.7865 18.7828 31.726 21.9858 31.726C23.9252 31.726 24.1603 31.2852 24.1603 30.5506V27.8177C24.1603 26.9362 24.3366 26.7893 24.9537 26.7893C25.3945 26.7893 26.1878 27.0244 27.9803 28.7581C30.0373 30.815 30.3899 31.7553 31.5359 31.7553H34.5626C35.4441 31.7553 35.8555 31.3146 35.6204 30.4624C35.356 29.6102 34.3569 28.3761 33.0639 26.9068C32.3587 26.084 31.3008 25.1731 30.9776 24.7323C30.5368 24.1446 30.6544 23.9095 30.9776 23.3806C30.9482 23.3806 34.6507 18.1501 35.0327 16.387Z" fill="black"/>
</svg>
