<svg width="44" height="44" viewBox="0 0 44 44" fill="none" xmlns="http://www.w3.org/2000/svg">
<path d="M21.8193 42.6386C10.3211 42.6386 1 33.3174 1 21.8193C1 10.3211 10.3211 1 21.8193 1C33.3174 1 42.6386 10.3211 42.6386 21.8193C42.6386 33.3174 33.3174 42.6386 21.8193 42.6386Z" fill="#DADADA" stroke="black"/>
<path d="M22.5055 33.4022C29.3311 33.3994 34.8825 27.8467 34.8852 21.0225C34.8865 17.7147 33.6 14.6044 31.2627 12.2644C28.9254 9.92441 25.8171 8.63516 22.5054 8.63373C15.6818 8.63373 10.1282 14.187 10.1255 21.0127C10.1245 23.1946 10.6946 25.3243 11.778 27.2018L10.0217 33.6169L16.5844 31.8953C18.3926 32.8816 20.4285 33.4015 22.5004 33.4022H22.5055Z" fill="#DADADA"/>
<path fill-rule="evenodd" clip-rule="evenodd" d="M12.9941 30.6758L16.8885 29.6542L17.2642 29.8772C18.844 30.8147 20.655 31.3107 22.5013 31.3114H22.5055C28.1768 31.3114 32.7927 26.6955 32.795 21.0218C32.796 18.2724 31.7268 15.6872 29.7841 13.7423C27.8414 11.7973 25.2579 10.7257 22.5096 10.7247C16.8339 10.7247 12.2179 15.3403 12.2157 21.0135C12.2149 22.9577 12.7589 24.8512 13.7889 26.4894L14.0335 26.8787L12.9941 30.6758ZM28.3187 23.6879C28.5345 23.7921 28.6801 23.8625 28.7424 23.9664C28.8197 24.0954 28.8197 24.7147 28.562 25.4374C28.3041 26.1599 27.0684 26.8194 26.474 26.9081C25.9411 26.9878 25.2667 27.0211 24.5257 26.7856C24.0765 26.643 23.5003 26.4527 22.7623 26.134C19.8624 24.8818 17.9027 22.0712 17.5323 21.54C17.5063 21.5028 17.4882 21.4767 17.4781 21.4632L17.4756 21.4599C17.3119 21.2415 16.215 19.778 16.215 18.2633C16.215 16.8385 16.9149 16.0916 17.2371 15.7479C17.2591 15.7243 17.2794 15.7027 17.2976 15.6828C17.5812 15.3731 17.9163 15.2957 18.1225 15.2957C18.3287 15.2957 18.5351 15.2976 18.7154 15.3067C18.7376 15.3078 18.7607 15.3076 18.7846 15.3075C18.9649 15.3064 19.1896 15.3051 19.4113 15.8376C19.4966 16.0426 19.6214 16.3464 19.753 16.6669C20.0192 17.3149 20.3133 18.0308 20.365 18.1345C20.4424 18.2893 20.4939 18.4699 20.3908 18.6764C20.3754 18.7074 20.361 18.7366 20.3474 18.7645C20.2699 18.9226 20.213 19.0389 20.0815 19.1924C20.0298 19.2527 19.9764 19.3178 19.923 19.3828C19.8166 19.5124 19.7102 19.642 19.6175 19.7343C19.4627 19.8886 19.3015 20.0559 19.4819 20.3656C19.6623 20.6753 20.2831 21.6882 21.2027 22.5085C22.1912 23.3902 23.0504 23.7628 23.4858 23.9517C23.5709 23.9886 23.6398 24.0185 23.6903 24.0438C23.9995 24.1987 24.18 24.1728 24.3604 23.9664C24.5409 23.7599 25.1337 23.0631 25.3399 22.7535C25.546 22.4439 25.7523 22.4955 26.0358 22.5987C26.3194 22.702 27.8402 23.4502 28.1495 23.6051C28.2099 23.6353 28.2664 23.6626 28.3187 23.6879Z" fill="black"/>
</svg>
